<svg width="120" height="120" viewBox="0 0 120 120" fill="none" xmlns="http://www.w3.org/2000/svg">
<rect width="120" height="120" rx="24" fill="#0E76FD"/>
<path d="M20 38C20 27.5066 28.5066 19 39 19H81C91.4934 19 100 27.5066 100 38V82C100 92.4934 91.4934 101 81 101H39C28.5066 101 20 92.4934 20 82V38Z" fill="url(#paint0_linear)"/>
<path d="M25 50C25 36.1929 36.1929 25 50 25H70C83.8071 25 95 36.1929 95 50V70C95 83.8071 83.8071 95 70 95H50C36.1929 95 25 83.8071 25 70V50Z" fill="url(#paint1_linear)"/>
<path d="M35 55C35 46.7157 41.7157 40 50 40H70C78.2843 40 85 46.7157 85 55V65C85 73.2843 78.2843 80 70 80H50C41.7157 80 35 73.2843 35 65V55Z" fill="url(#paint2_linear)"/>
<path d="M45 60C45 54.4772 49.4772 50 55 50H65C70.5228 50 75 54.4772 75 60C75 65.5228 70.5228 70 65 70H55C49.4772 70 45 65.5228 45 60Z" fill="#0E76FD"/>
<defs>
<linearGradient id="paint0_linear" x1="60" y1="19" x2="60" y2="101" gradientUnits="userSpaceOnUse">
<stop stop-color="#FF5300"/>
<stop offset="1" stop-color="#FF9900"/>
</linearGradient>
<linearGradient id="paint1_linear" x1="60" y1="25" x2="60" y2="95" gradientUnits="userSpaceOnUse">
<stop stop-color="#FF00FF"/>
<stop offset="1" stop-color="#00BFFF"/>
</linearGradient>
<linearGradient id="paint2_linear" x1="60" y1="40" x2="60" y2="80" gradientUnits="userSpaceOnUse">
<stop stop-color="#00FF94"/>
<stop offset="1" stop-color="#00FFFF"/>
</linearGradient>
</defs>
</svg>
